# xmcd
#
# Track frame offsets: 
#        182
#        21957
#        32435
#        42535
#        82765
#        113485
#        127455
#        162142
#        179177
#        185472
#        235740
#        250637
#        282785
#        325282
#
# Disc length: 4542 seconds
#
# Revision: 3
# Processed by: cddbd v1.5.2PL0 Copyright (c) Steve Scherf et al.
# Submitted via: ExactAudioCopy v0.99pb5
#
DISCID=b911bc0e
DTITLE=The Brain - Access and Amplify
DYEAR=1996
DGENRE=Electronic
TTITLE0=Access And Amplify
TTITLE1=Echoes Of An Ancient City
TTITLE2=Glow Of Aristarchus
TTITLE3=Now Is Forever
TTITLE4=Precambrian Shuffle
TTITLE5=Rust
TTITLE6=Light Years
TTITLE7=Picnic At Hanging Rock
TTITLE8=Web
TTITLE9=Dimensions Unmeasurable
TTITLE10=Ecto
TTITLE11=Morph
TTITLE12=Box
TTITLE13=Thermal Hysterisis
EXTD=Disc 4 of 4 CD compilation set\n(Bonus disc - all ambient) YEAR: 
EXTD=1996
EXTT0=
EXTT1=
EXTT2=
EXTT3=
EXTT4=
EXTT5=
EXTT6=
EXTT7=
EXTT8=
EXTT9=
EXTT10=
EXTT11=
EXTT12=
EXTT13=
PLAYORDER=
